<svg width="309" height="309" viewBox="0 0 309 309" fill="none" xmlns="http://www.w3.org/2000/svg">
<g filter="url(#filter0_dd)">
<mask id="mask0" mask-type="alpha" maskUnits="userSpaceOnUse" x="24" y="8" width="261" height="261">
<circle cx="154.5" cy="138.4" r="130.4" fill="#C4C4C4"/>
</mask>
<g mask="url(#mask0)">
<circle cx="154.5" cy="138.4" r="130.4" fill="white"/>
<path d="M79.0525 260.44C79.6007 250.572 87.4584 244.724 91.4786 236.318C97.1434 224.44 87.0929 214.39 100.067 202.695C113.041 191.182 106.463 185.883 114.138 176.564C121.996 167.244 137.894 169.985 137.894 169.985H170.421C170.421 169.985 186.319 167.244 194.176 176.564C202.034 185.883 195.273 191.182 208.247 202.695C221.221 214.207 211.171 224.258 216.836 236.318C219.211 241.252 223.049 245.09 225.79 249.841C238.947 271.221 218.846 298.083 195.821 298.083C195.821 298.083 112.311 298.083 112.128 298.083C96.5952 303.383 85.4483 301.373 87.6411 287.667C89.4685 277.8 78.5043 270.125 79.0525 260.44Z" fill="#2DBB54"/>
<path d="M154.34 153.721L170.055 151.163C170.055 151.163 170.055 171.812 170.055 186.249C170.055 200.137 155.436 203.426 154.34 203.791C153.243 203.609 138.807 200.319 138.807 186.431C138.807 171.995 138.807 151.346 138.807 151.346L154.34 153.721Z" fill="#F9D3B7"/>
<path d="M154.34 131.793L138.625 129.235C138.625 129.235 138.625 149.884 138.625 164.32C138.625 171.264 142.279 175.65 145.934 178.208C149.589 180.766 153.974 181.863 158.543 181.68C162.563 181.497 167.862 179.67 169.507 176.015C170.603 173.457 169.873 169.437 169.873 164.503C169.873 150.067 169.873 129.418 169.873 129.418L154.34 131.793Z" fill="#F7B7A1"/>
<path d="M183.578 124.301C183.578 124.301 183.761 121.56 189.243 120.463C194.725 119.367 196.735 138.189 186.684 140.199C176.634 142.209 177.73 128.321 183.578 124.301Z" fill="#F4C19F"/>
<path d="M132.594 134.534C132.594 134.534 131.315 131.976 125.833 133.072C120.351 134.169 125.833 152.26 135.701 150.249C145.751 148.422 139.356 135.996 132.594 134.534Z" fill="#F4C19F"/>
<path d="M165.852 170.533C181.019 167.427 190.887 152.625 187.781 137.641L183.578 116.809C180.471 101.642 165.67 91.7738 150.685 94.8803C135.518 97.9868 125.65 112.788 128.757 127.773L132.96 148.605C135.884 163.589 150.685 173.64 165.852 170.533Z" fill="#F9D3B7"/>
<path d="M136.615 146.229C134.97 137.823 145.934 138.372 158.726 135.813C171.7 133.255 181.568 128.504 183.212 136.91C184.857 145.316 172.796 138.92 159.822 141.661C147.213 144.219 138.442 154.818 136.615 146.229Z" fill="#F7B7A1"/>
<path d="M118.706 126.494C126.016 116.626 121.447 117.357 122.544 107.489C123.64 97.6214 134.239 89.2155 134.239 89.2155C134.239 89.2155 124.006 80.8096 131.315 74.7793C138.625 68.5663 145.934 70.2109 145.934 70.2109C145.934 70.2109 152.695 57.7848 165.487 65.277C176.451 71.6728 170.604 80.2614 166.218 84.0989C170.055 85.5608 178.096 89.2155 181.75 95.6113C186.684 104.2 182.481 106.027 192.897 112.24C203.313 118.636 182.299 128.687 187.963 136.362C193.628 144.036 189.791 148.422 189.791 148.422C189.791 148.422 191.07 142.026 185.222 139.285C179.375 136.544 177.182 131.976 182.299 122.474C187.233 113.154 152.33 121.743 142.828 102.555C141.548 123.935 124.554 125.032 132.777 131.793C141 138.554 140.817 143.671 136.432 148.422C132.046 153.173 135.701 158.655 135.701 158.655C135.701 158.655 130.401 156.097 132.777 146.777C134.787 137.641 111.397 136.544 118.706 126.494Z" fill="#081E29"/>
<path d="M172.979 125.58C172.979 125.58 167.862 127.225 162.563 123.935" stroke="#081E29" stroke-width="2.06821" stroke-miterlimit="10" stroke-linecap="round" stroke-linejoin="round"/>
<path d="M142.279 131.793C142.279 131.793 147.579 131.245 151.233 126.311" stroke="#081E29" stroke-width="2.06821" stroke-miterlimit="10" stroke-linecap="round" stroke-linejoin="round"/>
<path d="M150.32 135.813C150.502 136.91 149.772 138.006 148.675 138.372C147.579 138.554 146.482 137.823 146.117 136.727C145.934 135.631 146.665 134.534 147.761 134.169C149.041 133.986 150.137 134.717 150.32 135.813Z" fill="#081E29"/>
<path d="M171.334 131.61C171.517 132.707 170.786 133.803 169.69 134.169C168.593 134.351 167.497 133.62 167.132 132.524C166.949 131.428 167.68 130.331 168.776 129.966C169.873 129.783 170.969 130.514 171.334 131.61Z" fill="#081E29"/>
<path d="M159.457 151.711C159.274 150.98 159.274 150.249 159.274 149.519C159.274 146.777 162.563 146.047 163.66 148.605C164.025 149.336 164.208 149.884 164.391 150.615C164.756 151.711 164.756 152.808 164.573 153.539C164.208 155.732 161.649 156.28 160.37 154.452C160.005 153.721 159.639 152.808 159.457 151.711Z" fill="#081E29"/>
<path d="M157.629 129.966C157.629 129.966 165.121 141.478 160.188 142.392" stroke="#081E29" stroke-width="1.03411" stroke-miterlimit="10" stroke-linecap="round" stroke-linejoin="round"/>
<path d="M177.182 216.766L171.152 181.863C171.152 181.863 166.583 178.756 166.949 170.35C167.314 161.945 164.756 158.107 162.38 155.183C160.553 153.356 163.842 150.067 169.507 162.676C167.68 152.077 162.563 150.432 163.111 149.153C163.842 147.874 168.776 149.518 171.883 159.021C170.603 149.518 164.756 146.412 165.67 144.95C166.949 142.94 174.806 150.249 174.989 159.934C176.634 150.249 169.872 146.229 170.969 144.036C172.065 141.844 180.288 151.711 178.827 165.417C181.202 161.031 178.096 155.001 180.106 154.27C182.116 153.539 185.953 167.427 178.827 180.401C183.03 193.01 191.435 212.197 191.435 212.197L177.182 216.766Z" fill="#F9C4A0"/>
<path d="M207.882 295.708C207.882 295.708 223.963 288.033 218.663 266.104C213.729 245.09 215.374 210.37 192.897 201.964C191.253 201.233 189.243 201.598 187.781 202.695C183.578 205.801 178.461 206.532 175.355 206.715C173.162 206.715 171.334 208.177 170.603 210.187C168.593 215.486 165.67 226.816 168.959 243.08C173.71 266.47 166.583 293.149 183.212 297.535C199.659 301.921 207.882 295.708 207.882 295.708Z" fill="#45E471"/>
<path d="M140.086 162.31C140.086 162.31 150.502 174.371 165.852 170.533" stroke="#081E29" stroke-width="1.03411" stroke-miterlimit="10" stroke-linecap="round" stroke-linejoin="round"/>
</g>
</g>
<defs>
<filter id="filter0_dd" x="0.100403" y="0" width="308.799" height="308.799" filterUnits="userSpaceOnUse" color-interpolation-filters="sRGB">
<feFlood flood-opacity="0" result="BackgroundImageFix"/>
<feColorMatrix in="SourceAlpha" type="matrix" values="0 0 0 0 0 0 0 0 0 0 0 0 0 0 0 0 0 0 127 0"/>
<feOffset dy="16"/>
<feGaussianBlur stdDeviation="12"/>
<feColorMatrix type="matrix" values="0 0 0 0 0.196487 0 0 0 0 0.196487 0 0 0 0 0.279476 0 0 0 0.08 0"/>
<feBlend mode="multiply" in2="BackgroundImageFix" result="effect1_dropShadow"/>
<feColorMatrix in="SourceAlpha" type="matrix" values="0 0 0 0 0 0 0 0 0 0 0 0 0 0 0 0 0 0 127 0"/>
<feOffset dy="12"/>
<feGaussianBlur stdDeviation="6"/>
<feColorMatrix type="matrix" values="0 0 0 0 0.196487 0 0 0 0 0.196487 0 0 0 0 0.279476 0 0 0 0.08 0"/>
<feBlend mode="multiply" in2="effect1_dropShadow" result="effect2_dropShadow"/>
<feBlend mode="normal" in="SourceGraphic" in2="effect2_dropShadow" result="shape"/>
</filter>
</defs>
</svg>
